<?xml version="1.0" encoding="UTF-8"?>
<svg version="1.1" viewBox="-238.55838507753776 -99.00000000000001 784.3159608351135 200.00000000000003" xmlns="http://www.w3.org/2000/svg">
<g transform="translate(-3.7879 46.485) scale(2.1044)" fill="#232323">
<path d="m1.8-8.136c0 0.864 0.216 1.584 0.648 2.16 1.728 2.352 3.96 4.056 6.696 5.112s5.688 1.584 8.856 1.584c2.304 0 4.548-0.456 6.732-1.368s3.972-2.244 5.364-3.996 2.088-3.804 2.088-6.156c0-2.592-0.6-4.68-1.8-6.264s-2.664-2.76-4.392-3.528-3.888-1.512-6.48-2.232c-1.872-0.528-3.324-0.972-4.356-1.332s-1.884-0.864-2.556-1.512-1.008-1.5-1.008-2.556c0-2.64 1.824-3.96 5.472-3.96 1.728 0 3.276 0.312 4.644 0.936s2.484 1.464 3.348 2.52c0.672 0.672 1.536 1.008 2.592 1.008 0.864 0 1.632-0.264 2.304-0.792 0.912-0.72 1.368-1.632 1.368-2.736 0-0.96-0.312-1.824-0.936-2.592-1.392-1.776-3.312-3.12-5.76-4.032s-4.896-1.368-7.344-1.368c-2.4 0-4.668 0.468-6.804 1.404s-3.864 2.256-5.184 3.96-1.98 3.708-1.98 6.012c0 2.64 0.636 4.74 1.908 6.3s2.784 2.724 4.536 3.492 4.02 1.536 6.804 2.304c2.688 0.72 4.668 1.44 5.94 2.16s1.908 1.776 1.908 3.168c0 2.688-1.872 4.104-5.616 4.248-2.208 0-4.092-0.36-5.652-1.08s-3.06-1.824-4.5-3.312c-0.912-0.912-1.872-1.368-2.88-1.368-0.72 0-1.416 0.216-2.088 0.648-1.248 0.864-1.872 1.92-1.872 3.168z"/>
<path d="m59.76-7.164c-0.552-0.648-1.164-0.972-1.836-0.972-0.528 0-1.08 0.12-1.656 0.36-0.672 0.192-1.2 0.288-1.584 0.288-0.912 0-1.632-0.228-2.16-0.684s-0.792-1.188-0.792-2.196v-19.512h5.112c1.152 0 2.112-0.372 2.88-1.116s1.152-1.668 1.152-2.772c0-1.152-0.384-2.112-1.152-2.88s-1.728-1.152-2.88-1.152h-5.112v-4.608c0-1.248-0.408-2.292-1.224-3.132s-1.824-1.26-3.024-1.26c-1.248 0-2.292 0.42-3.132 1.26s-1.26 1.884-1.26 3.132v4.608h-3.312c-1.152 0-2.112 0.372-2.88 1.116s-1.152 1.668-1.152 2.772c0 1.152 0.384 2.112 1.152 2.88s1.728 1.152 2.88 1.152h3.312v19.872c0 4.128 1.02 6.828 3.06 8.1s4.548 1.908 7.524 1.908c1.776 0 3.372-0.444 4.788-1.332s2.124-1.98 2.124-3.276c0-1.056-0.276-1.908-0.828-2.556z"/>
<path d="m103.18-8.892c1.728-3.048 2.592-6.492 2.592-10.332s-0.864-7.284-2.592-10.332-4.092-5.424-7.092-7.128-6.3-2.556-9.9-2.556c-3.648 0-6.96 0.852-9.936 2.556s-5.328 4.08-7.056 7.128-2.592 6.492-2.592 10.332 0.864 7.284 2.592 10.332 4.08 5.412 7.056 7.092 6.288 2.52 9.936 2.52c3.6 0 6.9-0.84 9.9-2.52s5.364-4.044 7.092-7.092zm-7.524-16.632c0.984 1.848 1.476 3.948 1.476 6.3s-0.492 4.44-1.476 6.264-2.304 3.24-3.96 4.248-3.492 1.512-5.508 1.512-3.852-0.504-5.508-1.512-2.976-2.424-3.96-4.248-1.476-3.912-1.476-6.264 0.492-4.452 1.476-6.3 2.304-3.276 3.96-4.284 3.492-1.512 5.508-1.512 3.852 0.504 5.508 1.512 2.976 2.436 3.96 4.284z"/>
<path d="m136.58-38.016c-0.984-0.816-2.196-1.224-3.636-1.224-2.352 0-4.56 0.516-6.624 1.548s-3.648 2.532-4.752 4.5v-0.936c0-1.248-0.408-2.292-1.224-3.132s-1.848-1.26-3.096-1.26-2.28 0.42-3.096 1.26-1.224 1.884-1.224 3.132v29.736c0 1.248 0.408 2.292 1.224 3.132s1.848 1.26 3.096 1.26 2.28-0.42 3.096-1.26 1.224-1.884 1.224-3.132v-17.064c0-2.16 0.372-4.02 1.116-5.58s1.692-2.724 2.844-3.492 2.352-1.152 3.6-1.152c0.576 0 1.116 0.072 1.62 0.216s0.828 0.24 0.972 0.288c0.912 0.336 1.728 0.504 2.448 0.504 1.056 0 1.968-0.372 2.736-1.116s1.152-1.86 1.152-3.348c0-1.104-0.492-2.064-1.476-2.88z"/>
<path d="m177.34-17.352c0.864-0.72 1.32-1.656 1.368-2.808 0-3.408-0.84-6.576-2.52-9.504s-3.924-5.256-6.732-6.984-5.796-2.592-8.964-2.592c-3.216 0-6.24 0.828-9.072 2.484s-5.112 4.044-6.84 7.164-2.592 6.744-2.592 10.872c0 3.696 0.816 7.02 2.448 9.972s3.948 5.268 6.948 6.948 6.516 2.52 10.548 2.52c2.304 0 4.584-0.384 6.84-1.152s4.056-1.704 5.4-2.808c1.344-1.056 2.016-2.232 2.016-3.528 0-0.96-0.36-1.8-1.08-2.52s-1.584-1.08-2.592-1.08c-0.768 0-1.584 0.216-2.448 0.648-0.24 0.144-0.684 0.42-1.332 0.828s-1.524 0.792-2.628 1.152-2.64 0.54-4.608 0.54c-2.592 0-4.92-0.804-6.984-2.412s-3.384-3.828-3.96-6.66h23.76c1.152 0 2.16-0.36 3.024-1.08zm-26.712-6.12c1.008-5.232 4.296-7.848 9.864-7.848 2.256 0 4.272 0.72 6.048 2.16s2.76 3.168 2.952 5.184v0.504z"/>
<path d="m219.06-17.352c0.864-0.72 1.32-1.656 1.368-2.808 0-3.408-0.84-6.576-2.52-9.504s-3.924-5.256-6.732-6.984-5.796-2.592-8.964-2.592c-3.216 0-6.24 0.828-9.072 2.484s-5.112 4.044-6.84 7.164-2.592 6.744-2.592 10.872c0 3.696 0.816 7.02 2.448 9.972s3.948 5.268 6.948 6.948 6.516 2.52 10.548 2.52c2.304 0 4.584-0.384 6.84-1.152s4.056-1.704 5.4-2.808c1.344-1.056 2.016-2.232 2.016-3.528 0-0.96-0.36-1.8-1.08-2.52s-1.584-1.08-2.592-1.08c-0.768 0-1.584 0.216-2.448 0.648-0.24 0.144-0.684 0.42-1.332 0.828s-1.524 0.792-2.628 1.152-2.64 0.54-4.608 0.54c-2.592 0-4.92-0.804-6.984-2.412s-3.384-3.828-3.96-6.66h23.76c1.152 0 2.16-0.36 3.024-1.08zm-26.712-6.12c1.008-5.232 4.296-7.848 9.864-7.848 2.256 0 4.272 0.72 6.048 2.16s2.76 3.168 2.952 5.184v0.504z"/>
<path d="m258.34-34.884c-1.872-2.904-5.256-4.356-10.152-4.356-2.496 0-4.788 0.624-6.876 1.872s-3.78 2.736-5.076 4.464v-1.224c0-1.248-0.408-2.292-1.224-3.132s-1.848-1.26-3.096-1.26-2.28 0.42-3.096 1.26-1.224 1.884-1.224 3.132v29.736c0 1.248 0.408 2.292 1.224 3.132s1.848 1.26 3.096 1.26 2.28-0.42 3.096-1.26 1.224-1.884 1.224-3.132v-18.432c0-2.448 0.792-4.476 2.376-6.084s3.768-2.412 6.552-2.412c2.688 0 4.584 0.756 5.688 2.268s1.656 3.588 1.656 6.228v18.432c0 1.248 0.408 2.292 1.224 3.132s1.848 1.26 3.096 1.26 2.28-0.42 3.096-1.26 1.224-1.884 1.224-3.132v-18.432c0-5.136-0.936-9.156-2.808-12.06z"/>
</g>
<g transform="translate(-249.67 -110.11) scale(2.2222)">
<g fill="#232323">
<path d="M89.536 36.79L63.211 10.463c-7.285-7.285-19.138-7.285-26.422 0L10.463 36.788c-7.284 7.285-7.284 19.137 0 26.422L36.79 89.536C40.431 93.18 45.216 95 50 95s9.568-1.821 13.21-5.464l26.326-26.325c7.285-7.285 7.285-19.137 0-26.422zM39.277 12.95c2.851-2.85 6.66-4.42 10.723-4.42s7.872 1.57 10.723 4.42l9.573 9.573c2.851 2.851 4.42 6.66 4.42 10.723s-1.569 7.871-4.42 10.723l-3.543 3.542L50 30.758l-3.543-3.542C42.041 22.8 35.95 21.08 30.211 22.017l9.066-9.066zM50 64.265L35.735 50 50 35.735 64.265 50 50 64.265zm-37.049-3.542c-2.85-2.851-4.42-6.66-4.42-10.723s1.57-7.872 4.42-10.723l9.573-9.573c5.913-5.913 15.533-5.912 21.446 0l3.542 3.542L30.758 50l-3.542 3.543c-3.515 3.515-5.451 8.207-5.451 13.21 0 1.034.102 2.049.265 3.048l-9.079-9.078zm47.772 26.326c-2.851 2.85-6.66 4.42-10.723 4.42s-7.872-1.57-10.723-4.42l-9.573-9.573c-2.85-2.851-4.42-6.66-4.42-10.723s1.57-7.871 4.42-10.722l3.543-3.543L50 69.241l3.543 3.543c3.515 3.515 8.207 5.451 13.21 5.451 1.033 0 2.048-.102 3.048-.264l-9.078 9.078zm26.326-26.326l-9.573 9.573c-2.851 2.851-6.66 4.42-10.723 4.42s-7.871-1.569-10.722-4.42l-3.543-3.543 15.509-15.51 4.787-4.786c3.515-3.515 5.451-8.207 5.451-13.21 0-1.034-.102-2.048-.264-3.047l9.078 9.077c2.85 2.851 4.42 6.66 4.42 10.723s-1.57 7.872-4.42 10.723z"/>
</g>
</g>
</svg>
