<?xml version="1.0" encoding="UTF-8"?>
<svg version="1.1" viewBox="0 0 40 40" xmlns="http://www.w3.org/2000/svg">
<title>wirecard</title>
<g fill="none" fill-rule="evenodd">
<rect x=".5" y=".5" width="39" height="39" rx="8" fill="#fff" stroke="#D9D9D9"/>
<g transform="translate(8 10)">
<path id="a" d="m24.6 9.2c0-5.0709-5.5-9.1989-12.298-9.1989s-12.3 4.128-12.3 9.1989l-1e-3 0.53257c0 5.3743 4.814 9.7257 12.3 9.7257 7.532 0 12.3-4.3514 12.3-9.7246v-0.53371z" fill="#202B88"/>
<path d="m24.13 9.1886c0 4.776-5.3 8.6474-11.826 8.6474s-11.826-3.8714-11.826-8.6474c0-4.7731 5.295-8.6457 11.826-8.6457s11.825 3.8726 11.825 8.6457" fill="#56ABDD"/>
<path id="b" d="m8.3775 6.4617c-6e-3 0.014286-0.125 0.15429-0.0485 0.26629 0.186 0.272 0.764 0.42743 1.346 0.27886 0.3475-0.089143 0.792-0.49371 1.223-0.88571 0.4665-0.42286 0.93-0.84743 1.397-1.016 0.493-0.18 0.809-0.10286 1.017-0.030857 0.23 0.078286 0.499 0.24971 0.928 0.62 0.809 0.69371 4.063 3.9406 4.6265 4.5017 0.452-0.22857 2.465-1.2229 5.1985-1.9126-0.2375-1.6663-1.1235-3.192-2.47-4.4389-1.874 0.9-4.164 1.3691-6.4 0.11886-0.011-0.0057143-1.2235-0.66286-2.42-0.62857-1.775 0.046857-2.546 0.92571-3.361 1.856l-1.0315 1.2709h-5e-3zm10.356 4.0869c-0.038-0.038286-3.827-3.8257-4.685-4.5629-0.5-0.42629-0.7715-0.53486-1.062-0.57143-0.15-0.022857-0.36 0.010286-0.5 0.054857-0.4 0.12571-0.921 0.52457-1.385 0.94286-0.48 0.43771-0.9315 0.848-1.351 0.95714-0.5365 0.13714-1.192-0.025714-1.491-0.25714-0.12-0.091429-0.2065-0.2-0.2475-0.30971-0.11-0.28571 0.1-0.52571 0.127-0.57143l1.05-1.2914 0.37-0.41429c-0.337 0.057143-0.65 0.14857-0.9535 0.24571-0.3785 0.12171-0.742 0.23771-1.111 0.23714-0.1535 0-0.978-0.15429-1.135-0.20229-0.95-0.29714-1.776-0.58514-3.015-1.2457-1.4875 1.2571-2.481 2.8446-2.7675 4.5857l0.703 0.21714c3.361 0.85486 4.408 1.7349 4.599 1.9189 0.2-0.26171 0.5025-0.42743 0.834-0.42743 0.36258 0.0024778 0.70168 0.2054 0.91 0.54457 0.1935-0.17429 0.46-0.32286 0.802-0.32286 0.1565 0 0.318 0.034286 0.48 0.097143 0.381 0.14857 0.5765 0.43771 0.678 0.69886 0.127-0.065714 0.2835-0.11429 0.468-0.11257 0.18 0 0.37 0.045714 0.559 0.13886 0.62 0.304 0.7165 1 0.66 1.5257 0.044-0.0057143 0.09-0.0085714 0.135-0.0085714 0.73554 0.0022036 1.331 0.68395 1.3315 1.5246 0 0.25829-0.0575 0.50286-0.16 0.71829 0.201 0.12857 0.711 0.42 1.159 0.35429 0.357-0.050286 0.493-0.19086 0.5415-0.26857 0.035-0.053714 0.069-0.11714 0.036-0.16286l-0.9485-1.2s-0.1565-0.168-0.1-0.23314 0.151 0.029714 0.22 0.093714c0.37118 0.36841 0.72866 0.75446 1.0715 1.1571 0.01 0.0068572 0.049 0.094286 0.2665 0.13943 0.188 0.038857 0.5215 0.017143 0.7515-0.2 0.060209-0.057705 0.11516-0.12222 0.164-0.19257-5e-3 0.0034286-0.0075 8e-3 -0.011 0.0097143 0.2425-0.35543-0.0265-0.71429-0.0265-0.71429l-1.1085-1.4217s-0.158-0.16686-0.1-0.22857c0.0485-0.057143 0.15 0.029714 0.221 0.096 0.35 0.33543 0.85 0.904 1.3215 1.4354 0.0915 0.076571 0.51 0.37143 1.062-0.042857 0.335-0.24971 0.402-0.56 0.393-0.792-0.024-0.30971-0.2335-0.52971-0.2335-0.52971l-1.513-1.7383s-0.16-0.15543-0.1035-0.22857c0.05-0.066857 0.15 0.028571 0.218 0.094857 0.482 0.45714 1.787 1.8286 1.787 1.8286 0.019 0.014286 0.47 0.38114 1.027-0.022857 0.199-0.14629 0.326-0.36571 0.337-0.62114 0.0185-0.44171-0.2535-0.70457-0.2535-0.70457m-7.3615 2.1874c-0.235-4e-3 -0.49 0.15543-0.525 0.13314-0.0185-0.014857 0.015-0.12229 0.0365-0.184s0.332-1.1246-0.421-1.4931c-0.576-0.28343-0.93 0.035428-1.05 0.17886-0.0315 0.037714-0.05 0.034286-0.05-0.012571-0.01-0.19143-0.0865-0.71029-0.584-0.88343-0.71-0.24857-1.1675 0.31829-1.283 0.524-0.056275-0.46703-0.40253-0.81712-0.815-0.824-0.456 0-0.825 0.42286-0.82701 0.94171-0.001992 0.51886 0.37101 0.94457 0.82701 0.94457 0.22 0 0.422-0.1 0.569-0.26286 0.0065 0.0034285 0.0075 0.012571 5e-3 0.031428-0.035 0.22857-0.099 1.0817 0.6775 1.4269 0.3115 0.13714 0.5775 0.035429 0.7965-0.14057 0.065-0.057143 0.0765-0.030857 0.0675 0.04-0.0285 0.21714 6e-3 0.68571 0.579 0.95029 0.4365 0.20171 0.693-0.0057143 0.8625-0.184 0.0735-0.075429 0.0935-0.064 0.0965 0.056 0.023 0.62971 0.481 1.1303 1.0385 1.1314 0.5725 0.001141 1.0375-0.52914 1.0375-1.1851-0.0010995-0.65442-0.46488-1.1847-1.0375-1.1863" fill="#FEFEFE"/>
<path d="m11.394 15.04c-0.51601 0.0040966-0.94156-0.46099-0.961-1.0503-0.0015-0.057143-0.0065-0.184-0.1-0.184-0.04 0-0.0765 0.028571-0.1175 0.069714-0.114 0.12171-0.26 0.24457-0.4725 0.24457-0.097 0-0.202-0.026857-0.3115-0.077714-0.549-0.25486-0.557-0.68457-0.535-0.85714 6e-3 -0.047429 0.01-0.094857-0.018-0.13257l-0.036-0.034286h-0.034c-0.028 0-0.056 0.012571-0.1 0.043429-0.1585 0.12857-0.31 0.18857-0.465 0.18857-0.089495-5.67e-4 -0.17814-0.019937-0.2615-0.057143-0.723-0.32229-0.665-1.1011-0.63-1.3354 5e-3 -0.048-5e-3 -0.083429-0.032-0.11429l-0.05-0.048572-0.049 0.057143c-0.141 0.15657-0.325 0.24-0.518 0.24-0.19917 4.553e-4 -0.39032-0.08965-0.5313-0.25044-0.14098-0.16079-0.2202-0.37907-0.2202-0.6067 0-0.47429 0.3385-0.85714 0.7515-0.85714 0.374 0 0.693 0.32114 0.74 0.74286l0.0275 0.23086 0.111-0.19543c0.0125-0.022857 0.315-0.54743 0.873-0.54743 0.1 0 0.215 0.020572 0.326 0.059429 0.444 0.15543 0.52 0.61486 0.532 0.80743 0.0075 0.11143 0.0765 0.11714 0.09 0.11714 0.038 0 0.0665-0.026857 0.087-0.057143 0.14448-0.1719 0.34444-0.26839 0.553-0.26686 0.13 0 0.27 0.036572 0.414 0.10743 0.7 0.34457 0.387 1.3714 0.3815 1.3829-0.061 0.16971-0.0615 0.24457-6e-3 0.28914l0.0285 0.013714h0.02c0.033 0 0.072-0.016 0.138-0.041143 0.1-0.037714 0.241-0.094857 0.377-0.094857 0.532 0.0074286 0.964 0.50114 0.964 1.1017-8.275e-4 0.60842-0.43263 1.1011-0.965 1.1011m7.486-4.9429-4.6-4.4697c-0.416-0.36-0.701-0.54857-0.951-0.63314-0.111-0.04-0.2675-0.084-0.4665-0.084-0.186 0-0.385 0.04-0.6 0.11429-0.471 0.17143-0.942 0.59829-1.4 1.0114l-0.024 0.021143c-0.424 0.38457-0.8625 0.78286-1.193 0.86743-0.15 0.037714-0.2935 0.057143-0.442 0.057143-0.371 0-0.7-0.12343-0.83-0.30571-0.02-0.029714-6e-3 -0.078286 0.041-0.14857l0.0065-0.0085714 1.027-1.2646c0.8-0.91429 1.5635-1.7869 3.3115-1.8286h0.0875c1.088 0 2.176 0.55829 2.298 0.62171 1.02 0.56857 2.0735 0.85714 3.1315 0.85829 1.1035 0 2.2415-0.31143 3.4385-0.94057-0.13532-0.13009-0.27405-0.25548-0.416-0.376-1.052 0.51429-2.0535 0.78286-3.019 0.78286-0.9875-0.0011429-1.9735-0.272-2.9315-0.8-0.05-0.026857-1.25-0.67429-2.501-0.67429h-0.0985c-1.468 0.041143-2.294 0.63543-2.851 1.1577-0.54 0.014286-1.008 0.164-1.423 0.296-0.37 0.11829-0.69 0.22-1.0015 0.22-0.13 0-0.3615-0.013143-0.382-0.014286-0.358-0.011429-2.166-0.51886-3.604-1.1406l-0.426 0.36457c1.503 0.70457 3.33 1.2503 3.908 1.2914l0.5025 0.034286c0.382 0 0.7625-0.12286 1.132-0.24114l0.71-0.20114-0.2015 0.22971-1.0435 1.2886c-0.081 0.096-0.26 0.34743-0.142 0.66057 0.046 0.124 0.1415 0.24457 0.273 0.34686 0.249 0.19143 0.7 0.32 1.108 0.32171 0.157 0 0.3-0.018857 0.4415-0.053714 0.4365-0.112 0.9-0.52971 1.382-0.97143 0.386-0.35086 0.935-0.79771 1.3565-0.92857 0.12356-0.037379 0.25069-0.057148 0.3785-0.058857 0.035 0 0.0675 0 0.1 0.0057143 0.275 0.04 0.55 0.14857 1.025 0.56114 0.8565 0.73486 4.6435 4.5217 4.6815 4.5589 0.15214 0.16529 0.23467 0.39742 0.2265 0.63714-0.0075 0.22-0.115 0.41714-0.3015 0.55143-0.1615 0.11829-0.329 0.17829-0.498 0.17829-0.252-0.0011428-0.4265-0.13714-0.438-0.14571l-1.7885-1.8303c-0.0765-0.072571-0.15-0.13714-0.225-0.13714-0.04 0-0.075 0.018857-0.099 0.053143-0.075 0.10629 0.01 0.25314 0.108 0.34286l1.5165 1.7411c2e-3 0.0017143 0.1885 0.20286 0.2085 0.47029 0.0125 0.288-0.1075 0.53029-0.36 0.71714-0.178 0.136-0.36 0.204-0.5365 0.204-0.15395 7.248e-4 -0.30451-0.051653-0.432-0.15029l-0.2185-0.24571c-0.3965-0.44686-0.808-0.91429-1.1085-1.2-0.073-0.070286-0.151-0.13429-0.225-0.13429-0.036344-8.518e-4 -0.071341 0.015727-0.0965 0.045714-0.035 0.043428-0.058 0.12229 0.0275 0.25143 0.036 0.053143 0.076 0.097143 0.076 0.097143l1.1065 1.4211c9e-3 0.012571 0.2285 0.30857 0.025 0.60571l-0.04 0.057143c-0.032 0.041714-0.068 0.08-0.101 0.11314-0.19 0.17143-0.4415 0.196-0.5415 0.196-0.049814 1.855e-4 -0.099532-0.0049801-0.1485-0.015429-0.11-0.022857-0.1835-0.056-0.22-0.10457l-0.012-0.014857c-0.06-0.071429-0.6175-0.72286-1.079-1.1629-0.0615-0.058857-0.1365-0.13143-0.215-0.13143-0.0385 0-0.073 0.017143-0.1 0.050286-0.092 0.11429 0.05 0.28571 0.1035 0.34286l0.963 1.2114c-0.008157 0.026194-0.019977 0.050702-0.035 0.072572-0.0335 0.052571-0.15 0.184-0.49 0.23314-0.043 0.0074286-0.085 0.0091429-0.126 0.0091429-0.3535 0-0.729-0.196-0.923-0.31429 0.20339-0.49836 0.17037-1.0809-0.087595-1.5451-0.25796-0.4642-0.70524-0.74602-1.1864-0.74752-0.016 0-0.035 0-0.05 0.0011429 0.025-0.4-0.025-1.1731-0.714-1.5086-0.1985-0.1-0.396-0.14857-0.5885-0.14857-0.14734-0.0011912-0.29361 0.02864-0.4315 0.088-0.14315-0.31876-0.39142-0.55932-0.69-0.66857-0.1622-0.065816-0.33288-0.10019-0.505-0.10171-0.28221-0.0019821-0.55766 0.09868-0.7865 0.28743-0.226-0.32114-0.567-0.51143-0.927-0.51143-0.313 0-0.617 0.14286-0.84 0.39714-0.293-0.25543-1.459-1.1017-4.5765-1.9109-0.23793-0.068906-0.47465-0.14321-0.71-0.22286-0.036502 0.19236-0.063214 0.38697-0.08 0.58286l0.688 0.18857c3.185 0.808 4.238 1.6486 4.4165 1.8074-0.0615 0.164-0.0925 0.34286-0.0925 0.52229-9.2e-7 0.75337 0.5338 1.3645 1.193 1.3657 0.075 0 0.1465-0.0074285 0.2185-0.021714 0.1 0.55314 0.4175 0.97143 0.902 1.1886 0.13524 0.060314 0.27884 0.092441 0.424 0.094857 0.0925 0 0.183-0.014857 0.2725-0.04 0.089 0.25886 0.291 0.58286 0.74 0.792 0.158 0.072 0.3165 0.10971 0.47 0.10971 0.12454-6.44e-5 0.2481-0.025211 0.365-0.074286 0.215 0.60114 0.7285 0.99886 1.3 0.99886 0.38003-0.0012161 0.74365-0.17708 1.009-0.488 0.227 0.14286 0.7075 0.4 1.1915 0.4 0.0625 0 0.122-0.0057143 0.18-0.013143 0.4815-0.068572 0.7-0.28286 0.809-0.45714 0.01858-0.029452 0.03529-0.060389 0.05-0.092571 0.1125 0.037143 0.238 0.068571 0.3825 0.068571 0.261 0 0.515-0.10286 0.77-0.31429 0.25-0.20686 0.4285-0.50286 0.4535-0.756 0.0865 0.0091429 0.1725 0.018857 0.2585 0.018857 0.27 0 0.538-0.096 0.7915-0.28571 0.4915-0.368 0.576-0.84857 0.5685-1.1623 0.085601 0.019717 0.17268 0.02986 0.26 0.030286 0.25 0 0.5-0.087429 0.7415-0.26 0.3035-0.22171 0.4865-0.56229 0.515-0.96 0.0185-0.26857-0.039-0.54-0.163-0.77257 0.822-0.4 2.702-1.1874 4.915-1.7583-0.015-0.19657-0.04-0.38971-0.069-0.58286-2.678 0.68571-4.6765 1.6686-5.175 1.9229" fill="#202B88"/>
</g>
</g>
</svg>
