<?xml version="1.0" encoding="UTF-8"?>
<svg version="1.1" viewBox="0 0 49.99944475423296 50" xmlns="http://www.w3.org/2000/svg">
<g transform="translate(-2.7778 -2.7773) scale(.55555)">
<g fill="#232323">
<path d="M89.536 36.79L63.211 10.463c-7.285-7.285-19.138-7.285-26.422 0L10.463 36.788c-7.284 7.285-7.284 19.137 0 26.422L36.79 89.536C40.431 93.18 45.216 95 50 95s9.568-1.821 13.21-5.464l26.326-26.325c7.285-7.285 7.285-19.137 0-26.422zM39.277 12.95c2.851-2.85 6.66-4.42 10.723-4.42s7.872 1.57 10.723 4.42l9.573 9.573c2.851 2.851 4.42 6.66 4.42 10.723s-1.569 7.871-4.42 10.723l-3.543 3.542L50 30.758l-3.543-3.542C42.041 22.8 35.95 21.08 30.211 22.017l9.066-9.066zM50 64.265L35.735 50 50 35.735 64.265 50 50 64.265zm-37.049-3.542c-2.85-2.851-4.42-6.66-4.42-10.723s1.57-7.872 4.42-10.723l9.573-9.573c5.913-5.913 15.533-5.912 21.446 0l3.542 3.542L30.758 50l-3.542 3.543c-3.515 3.515-5.451 8.207-5.451 13.21 0 1.034.102 2.049.265 3.048l-9.079-9.078zm47.772 26.326c-2.851 2.85-6.66 4.42-10.723 4.42s-7.872-1.57-10.723-4.42l-9.573-9.573c-2.85-2.851-4.42-6.66-4.42-10.723s1.57-7.871 4.42-10.722l3.543-3.543L50 69.241l3.543 3.543c3.515 3.515 8.207 5.451 13.21 5.451 1.033 0 2.048-.102 3.048-.264l-9.078 9.078zm26.326-26.326l-9.573 9.573c-2.851 2.851-6.66 4.42-10.723 4.42s-7.871-1.569-10.722-4.42l-3.543-3.543 15.509-15.51 4.787-4.786c3.515-3.515 5.451-8.207 5.451-13.21 0-1.034-.102-2.048-.264-3.047l9.078 9.077c2.85 2.851 4.42 6.66 4.42 10.723s-1.57 7.872-4.42 10.723z"/>
</g>
</g>
</svg>
