<?xml version="1.0" encoding="UTF-8"?>
<svg version="1.1" viewBox="0 0 40 40" xmlns="http://www.w3.org/2000/svg">
<g fill="none" fill-rule="evenodd">
<rect x=".5" y=".5" width="39" height="39" rx="8" fill="#fff" stroke="#D9D9D9"/>
<g transform="translate(9 8)">
<path id="Path" d="m19.625 6.0931-0.081845 0.45278c-1.0625 5.2292-4.6949 7.0361-9.3348 7.0361h-2.3631c-0.56548 0-1.0461 0.39583-1.1339 0.93056l-1.5521 9.4444c-0.059524 0.35278 0.22619 0.67083 0.59524 0.67083h4.1905c0.49554 0 0.91815-0.34722 0.99702-0.81528l0.041667-0.20417 0.78869-4.8014 0.050595-0.27778c0.077381-0.47222 0.5-0.81667 0.99702-0.81667h0.625c4.0595 0 7.2381-1.5806 8.1667-6.1556 0.3869-1.9111 0.1875-3.5069-0.83929-4.6292-0.3125-0.33889-0.69643-0.61944-1.1458-0.84722l-0.0014881 0.0125z" fill="#009DDD"/>
<path id="a" d="m18.524 4.2222-0.56845-0.15694-0.60268-0.12222c-0.72173-0.13889-1.5119-0.18472-2.3601-0.18472h-7.1503c-0.17241 0-0.34196 0.041116-0.49256 0.11944-0.33036 0.16944-0.5744 0.50417-0.63393 0.91667l-1.5655 10.633c0.099702-0.69444 0.63988-1.1806 1.2842-1.1806h2.6786c5.2574 0 9.375-2.2889 10.577-8.9125l0.09375-0.57361c-0.31449-0.17704-0.64575-0.32674-0.98958-0.44722l-0.26786-0.090278-0.0029762-0.0013889z" fill="#202C69"/>
<path d="m8.2545 5.8639c0.052083-0.3 0.26786-0.54444 0.55952-0.66667 0.13393-0.055556 0.27976-0.0875 0.43601-0.0875h6.3125c0.74702 0 1.4464 0.041667 2.0833 0.13472l0.53125 0.088889 0.50149 0.11389 0.2381 0.065278c0.3125 0.091667 0.60417 0.20139 0.87351 0.32639 0.31548-1.7875-0.0029762-3.0042-1.0923-4.1069-1.2024-1.2125-3.3705-1.7319-6.1443-1.7319h-8.0536c-0.56548 0-1.0506 0.36528-1.1369 0.86111l-3.3542 18.861c-0.065476 0.375 0.25893 0.70833 0.68452 0.70833h4.9702l2.5893-14.569 0.0014881 0.0027778z" fill="#1F3A85"/>
</g>
</g>
</svg>
